<?xml version="1.0" encoding="UTF-8" standalone="no"?>
<!DOCTYPE svg PUBLIC "-//W3C//DTD SVG 1.1//EN" "http://www.w3.org/Graphics/SVG/1.1/DTD/svg11.dtd">
<svg width="100%" height="100%" viewBox="0 0 1249 680" version="1.1" xmlns="http://www.w3.org/2000/svg" xmlns:xlink="http://www.w3.org/1999/xlink" xml:space="preserve" xmlns:serif="http://www.serif.com/" style="fill-rule:evenodd;clip-rule:evenodd;stroke-linecap:round;stroke-linejoin:round;stroke-miterlimit:50;">
    <g transform="matrix(1,0,0,1,-14.1169,-21.207)">
        <path d="M1256.04,172.499C1256.04,92.586 1191.16,27.707 1111.25,27.707L165.408,27.707C85.496,27.707 20.617,92.586 20.617,172.499L20.617,549.912C20.617,629.824 85.496,694.703 165.408,694.703L1111.25,694.703C1191.16,694.703 1256.04,629.824 1256.04,549.912L1256.04,172.499Z" style="fill:rgb(234,208,218);stroke:rgb(212,146,173);stroke-width:13px;"/>
        <g transform="matrix(1,0,0,1,88.2812,-16.8805)">
            <path d="M527.861,432.281C527.861,422.93 520.269,415.339 510.919,415.339L477.035,415.339C467.684,415.339 460.093,422.93 460.093,432.281L460.093,481.239C460.093,490.589 467.684,498.18 477.035,498.18L510.919,498.18C520.269,498.18 527.861,490.589 527.861,481.239L527.861,432.281Z" style="fill:rgb(234,208,218);stroke:rgb(212,146,173);stroke-width:13px;stroke-miterlimit:1;"/>
            <path d="M640,425.694C640,419.979 635.36,415.339 629.645,415.339L570.757,415.339C565.041,415.339 560.401,419.979 560.401,425.694L560.401,446.404C560.401,452.12 565.041,456.76 570.757,456.76L629.645,456.76C635.36,456.76 640,452.12 640,446.404L640,425.694Z" style="fill:rgb(234,208,218);stroke:rgb(212,146,173);stroke-width:13px;stroke-miterlimit:1;"/>
            <path d="M640,499.65C640,488.668 631.083,479.751 620.1,479.751L580.301,479.751C569.318,479.751 560.401,488.668 560.401,499.65L560.401,554.291C560.401,565.274 569.318,574.19 580.301,574.19L620.1,574.19C631.083,574.19 640,565.274 640,554.291L640,499.65Z" style="fill:rgb(234,208,218);stroke:rgb(212,146,173);stroke-width:13px;stroke-miterlimit:1;"/>
            <path d="M527.861,538.776C527.861,532.26 522.571,526.971 516.056,526.971L471.898,526.971C465.383,526.971 460.093,532.26 460.093,538.776L460.093,562.385C460.093,568.901 465.383,574.19 471.898,574.19L516.056,574.19C522.571,574.19 527.861,568.901 527.861,562.385L527.861,538.776Z" style="fill:rgb(234,208,218);stroke:rgb(212,146,173);stroke-width:13px;stroke-miterlimit:1;"/>
            <path d="M638.328,609.718C638.328,603.786 633.512,598.97 627.58,598.97L470.841,598.97C464.909,598.97 460.093,603.786 460.093,609.718L460.093,631.215C460.093,637.147 464.909,641.963 470.841,641.963L627.58,641.963C633.512,641.963 638.328,637.147 638.328,631.215L638.328,609.718Z" style="fill:rgb(234,208,218);stroke:rgb(212,146,173);stroke-width:13px;stroke-miterlimit:1;"/>
        </g>
        <g transform="matrix(1,0,0,1,-80.9843,18.7031)">
            <text x="429.8px" y="182.593px" style="font-family:'ReenieBeanie', 'Reenie Beanie';font-weight:500;font-size:144px;fill:rgb(53,51,57);">My Webpage</text>
            <text x="455.144px" y="326.593px" style="font-family:'ReenieBeanie', 'Reenie Beanie';font-weight:500;font-size:144px;fill:rgb(53,51,57);">(box model)</text>
        </g>
    </g>
</svg>
