<?xml version="1.0" encoding="UTF-8" standalone="no"?>
<!DOCTYPE svg PUBLIC "-//W3C//DTD SVG 1.1//EN" "http://www.w3.org/Graphics/SVG/1.1/DTD/svg11.dtd">
<svg width="100%" height="100%" viewBox="0 0 1280 720" version="1.1" xmlns="http://www.w3.org/2000/svg" xmlns:xlink="http://www.w3.org/1999/xlink" xml:space="preserve" xmlns:serif="http://www.serif.com/" style="fill-rule:evenodd;clip-rule:evenodd;stroke-linecap:round;stroke-linejoin:round;stroke-miterlimit:50;">
    <path d="M1256.04,172.499C1256.04,92.586 1191.16,27.707 1111.25,27.707L165.408,27.707C85.496,27.707 20.617,92.586 20.617,172.499L20.617,549.912C20.617,629.824 85.496,694.703 165.408,694.703L1111.25,694.703C1191.16,694.703 1256.04,629.824 1256.04,549.912L1256.04,172.499Z" style="fill:rgb(234,208,218);stroke:rgb(212,146,173);stroke-width:13px;"/>
    <g transform="matrix(1,0,0,1,-80.9843,18.7031)">
        <g transform="matrix(1,0,0,1,429.8,182.593)">
            <g transform="matrix(144,0,0,144,0,0)">
                <path d="M0.519,0.054C0.52,0.058 0.522,0.062 0.523,0.065C0.524,0.068 0.526,0.072 0.527,0.076C0.528,0.08 0.528,0.084 0.528,0.087C0.528,0.092 0.526,0.095 0.523,0.099C0.52,0.101 0.516,0.104 0.512,0.106C0.507,0.108 0.503,0.109 0.499,0.11C0.495,0.111 0.493,0.111 0.492,0.111C0.488,0.111 0.481,0.099 0.47,0.075C0.459,0.05 0.448,0.016 0.436,-0.028C0.423,-0.072 0.411,-0.124 0.398,-0.185C0.385,-0.246 0.375,-0.312 0.367,-0.385C0.366,-0.37 0.363,-0.352 0.36,-0.332C0.356,-0.311 0.35,-0.292 0.343,-0.274C0.336,-0.256 0.326,-0.241 0.315,-0.229C0.303,-0.216 0.288,-0.21 0.27,-0.21C0.257,-0.21 0.243,-0.217 0.227,-0.23C0.211,-0.243 0.196,-0.259 0.181,-0.278C0.166,-0.296 0.152,-0.315 0.14,-0.334C0.127,-0.353 0.118,-0.368 0.112,-0.38C0.115,-0.351 0.119,-0.315 0.126,-0.274C0.132,-0.233 0.142,-0.189 0.155,-0.143C0.156,-0.138 0.158,-0.135 0.16,-0.133C0.161,-0.13 0.163,-0.128 0.165,-0.125C0.166,-0.122 0.168,-0.119 0.169,-0.117C0.17,-0.114 0.17,-0.109 0.17,-0.103C0.17,-0.094 0.167,-0.088 0.16,-0.084C0.153,-0.08 0.147,-0.078 0.141,-0.078C0.138,-0.078 0.133,-0.083 0.128,-0.094C0.123,-0.104 0.117,-0.117 0.111,-0.134C0.105,-0.151 0.099,-0.169 0.093,-0.19C0.087,-0.21 0.082,-0.23 0.077,-0.25C0.072,-0.27 0.067,-0.289 0.064,-0.307C0.061,-0.324 0.059,-0.338 0.059,-0.349C0.059,-0.366 0.06,-0.378 0.062,-0.385C0.063,-0.392 0.066,-0.397 0.069,-0.4L0.069,-0.461C0.069,-0.47 0.072,-0.478 0.077,-0.483C0.082,-0.488 0.088,-0.49 0.096,-0.49C0.103,-0.49 0.11,-0.484 0.119,-0.473C0.128,-0.462 0.137,-0.447 0.148,-0.43C0.158,-0.413 0.169,-0.394 0.18,-0.374C0.191,-0.354 0.203,-0.335 0.214,-0.318C0.225,-0.301 0.235,-0.286 0.246,-0.275C0.256,-0.264 0.266,-0.258 0.275,-0.258C0.284,-0.258 0.292,-0.266 0.3,-0.283C0.308,-0.299 0.316,-0.32 0.323,-0.347C0.33,-0.374 0.336,-0.404 0.341,-0.438C0.346,-0.472 0.351,-0.507 0.354,-0.542C0.354,-0.546 0.354,-0.551 0.353,-0.556C0.352,-0.561 0.352,-0.566 0.352,-0.572C0.352,-0.58 0.354,-0.589 0.358,-0.598C0.361,-0.607 0.368,-0.612 0.379,-0.612C0.385,-0.612 0.39,-0.61 0.394,-0.607C0.397,-0.604 0.4,-0.6 0.401,-0.595C0.402,-0.59 0.403,-0.584 0.404,-0.58C0.404,-0.575 0.404,-0.57 0.404,-0.567C0.404,-0.562 0.404,-0.553 0.403,-0.541C0.402,-0.528 0.401,-0.509 0.401,-0.484C0.401,-0.462 0.403,-0.437 0.406,-0.408C0.409,-0.379 0.414,-0.348 0.42,-0.316C0.425,-0.283 0.432,-0.25 0.44,-0.216C0.447,-0.181 0.456,-0.148 0.465,-0.115C0.474,-0.082 0.483,-0.051 0.492,-0.023C0.501,0.007 0.51,0.032 0.519,0.054Z" style="fill:rgb(53,51,57);fill-rule:nonzero;"/>
            </g>
            <g transform="matrix(144,0,0,144,73.872,0)">
                <path d="M0.249,-0.468C0.24,-0.422 0.232,-0.378 0.225,-0.335C0.222,-0.317 0.218,-0.298 0.215,-0.279C0.212,-0.259 0.209,-0.24 0.206,-0.221C0.203,-0.202 0.2,-0.184 0.198,-0.167C0.195,-0.15 0.193,-0.134 0.192,-0.12C0.189,-0.099 0.187,-0.074 0.186,-0.047C0.185,-0.02 0.183,0.006 0.182,0.031C0.181,0.06 0.18,0.089 0.18,0.118C0.18,0.124 0.179,0.131 0.178,0.138C0.177,0.145 0.176,0.153 0.176,0.16C0.176,0.167 0.174,0.172 0.172,0.177C0.169,0.182 0.164,0.184 0.158,0.184C0.153,0.184 0.149,0.18 0.146,0.172C0.142,0.163 0.14,0.154 0.138,0.143C0.136,0.132 0.135,0.121 0.134,0.11C0.133,0.098 0.133,0.091 0.133,0.086L0.133,0.067C0.133,0.059 0.134,0.048 0.135,0.033C0.136,0.018 0.137,-0.002 0.139,-0.027C0.141,-0.051 0.144,-0.083 0.148,-0.122C0.148,-0.123 0.143,-0.126 0.135,-0.132C0.126,-0.138 0.115,-0.146 0.102,-0.155C0.089,-0.164 0.075,-0.173 0.062,-0.184C0.048,-0.195 0.036,-0.205 0.027,-0.215C0.026,-0.216 0.024,-0.219 0.021,-0.224C0.018,-0.229 0.017,-0.234 0.017,-0.241C0.017,-0.244 0.019,-0.248 0.022,-0.252C0.025,-0.255 0.029,-0.257 0.033,-0.257C0.036,-0.257 0.038,-0.256 0.041,-0.253C0.056,-0.24 0.074,-0.225 0.094,-0.209C0.114,-0.192 0.134,-0.177 0.153,-0.164C0.154,-0.176 0.157,-0.194 0.162,-0.219C0.166,-0.244 0.17,-0.27 0.175,-0.299C0.18,-0.327 0.184,-0.354 0.189,-0.381C0.193,-0.408 0.196,-0.429 0.198,-0.445C0.198,-0.448 0.199,-0.452 0.2,-0.458C0.201,-0.464 0.203,-0.47 0.206,-0.476C0.209,-0.482 0.212,-0.487 0.215,-0.492C0.218,-0.496 0.222,-0.498 0.226,-0.498C0.228,-0.498 0.232,-0.496 0.239,-0.493C0.246,-0.489 0.249,-0.481 0.249,-0.468Z" style="fill:rgb(53,51,57);fill-rule:nonzero;"/>
            </g>
            <g transform="matrix(144,0,0,144,174.096,0)">
                <path d="M0.519,-0.112C0.519,-0.089 0.513,-0.07 0.501,-0.054C0.488,-0.038 0.467,-0.03 0.437,-0.03C0.416,-0.03 0.396,-0.034 0.375,-0.041C0.354,-0.048 0.333,-0.058 0.313,-0.07C0.293,-0.082 0.274,-0.096 0.256,-0.112C0.237,-0.128 0.221,-0.145 0.206,-0.162C0.205,-0.156 0.203,-0.147 0.2,-0.136C0.197,-0.125 0.194,-0.113 0.19,-0.102C0.186,-0.091 0.182,-0.081 0.177,-0.073C0.171,-0.064 0.166,-0.06 0.161,-0.06C0.152,-0.06 0.143,-0.064 0.133,-0.073C0.122,-0.082 0.112,-0.093 0.102,-0.108C0.091,-0.122 0.081,-0.138 0.072,-0.157C0.062,-0.176 0.053,-0.195 0.046,-0.215C0.027,-0.27 0.014,-0.314 0.009,-0.346C0.004,-0.377 0.001,-0.394 0.001,-0.397C0.001,-0.401 0.002,-0.405 0.003,-0.408C0.004,-0.411 0.007,-0.413 0.012,-0.413C0.019,-0.413 0.025,-0.411 0.029,-0.407C0.032,-0.402 0.035,-0.397 0.036,-0.39C0.039,-0.376 0.044,-0.36 0.05,-0.342C0.055,-0.323 0.062,-0.304 0.069,-0.285C0.076,-0.266 0.083,-0.247 0.091,-0.229C0.098,-0.21 0.106,-0.194 0.113,-0.179C0.12,-0.164 0.127,-0.153 0.134,-0.144C0.141,-0.135 0.146,-0.13 0.151,-0.13C0.156,-0.13 0.159,-0.134 0.162,-0.142C0.164,-0.149 0.166,-0.158 0.167,-0.168C0.168,-0.178 0.169,-0.188 0.17,-0.197C0.17,-0.206 0.17,-0.213 0.17,-0.216C0.167,-0.222 0.164,-0.229 0.163,-0.237C0.161,-0.245 0.16,-0.252 0.16,-0.257C0.16,-0.266 0.162,-0.273 0.167,-0.279C0.171,-0.285 0.175,-0.288 0.179,-0.288C0.182,-0.288 0.184,-0.288 0.185,-0.287C0.186,-0.286 0.187,-0.286 0.189,-0.285C0.191,-0.285 0.193,-0.285 0.194,-0.286C0.195,-0.286 0.197,-0.286 0.199,-0.286C0.2,-0.286 0.202,-0.286 0.204,-0.285C0.205,-0.284 0.207,-0.281 0.209,-0.276C0.218,-0.253 0.23,-0.23 0.246,-0.206C0.262,-0.182 0.28,-0.16 0.3,-0.141C0.32,-0.122 0.342,-0.106 0.365,-0.093C0.388,-0.08 0.412,-0.074 0.436,-0.074C0.445,-0.074 0.453,-0.077 0.46,-0.083C0.467,-0.088 0.471,-0.096 0.471,-0.105C0.471,-0.133 0.468,-0.162 0.463,-0.191C0.457,-0.22 0.449,-0.25 0.44,-0.281C0.43,-0.312 0.419,-0.343 0.406,-0.375C0.393,-0.406 0.38,-0.439 0.367,-0.472C0.356,-0.5 0.345,-0.522 0.335,-0.539C0.324,-0.555 0.315,-0.568 0.308,-0.578C0.3,-0.587 0.294,-0.595 0.289,-0.602C0.284,-0.608 0.282,-0.616 0.282,-0.625C0.282,-0.636 0.286,-0.645 0.295,-0.65C0.303,-0.655 0.312,-0.658 0.321,-0.658C0.326,-0.658 0.332,-0.653 0.339,-0.643C0.346,-0.632 0.353,-0.619 0.36,-0.603C0.367,-0.586 0.375,-0.568 0.382,-0.548C0.389,-0.528 0.397,-0.508 0.404,-0.488C0.415,-0.459 0.427,-0.427 0.44,-0.394C0.453,-0.36 0.466,-0.326 0.478,-0.293C0.489,-0.259 0.499,-0.226 0.507,-0.195C0.515,-0.164 0.519,-0.136 0.519,-0.112Z" style="fill:rgb(53,51,57);fill-rule:nonzero;"/>
            </g>
            <g transform="matrix(144,0,0,144,254.592,0)">
                <path d="M0.318,-0.105C0.319,-0.104 0.319,-0.102 0.319,-0.099C0.319,-0.095 0.316,-0.089 0.31,-0.081C0.308,-0.078 0.304,-0.074 0.297,-0.068C0.29,-0.062 0.281,-0.056 0.27,-0.05C0.259,-0.044 0.245,-0.039 0.229,-0.034C0.212,-0.029 0.193,-0.027 0.171,-0.027C0.156,-0.027 0.141,-0.031 0.126,-0.038C0.111,-0.045 0.098,-0.055 0.087,-0.069C0.076,-0.082 0.066,-0.099 0.059,-0.12C0.052,-0.14 0.048,-0.164 0.048,-0.191C0.048,-0.217 0.051,-0.241 0.058,-0.264C0.065,-0.287 0.073,-0.307 0.084,-0.324C0.094,-0.341 0.105,-0.355 0.118,-0.365C0.131,-0.375 0.143,-0.38 0.155,-0.38C0.166,-0.38 0.177,-0.378 0.188,-0.374C0.199,-0.369 0.209,-0.364 0.218,-0.357C0.227,-0.35 0.234,-0.343 0.239,-0.335C0.244,-0.326 0.247,-0.318 0.247,-0.309C0.247,-0.299 0.243,-0.289 0.234,-0.278C0.225,-0.267 0.214,-0.258 0.201,-0.249C0.188,-0.24 0.176,-0.232 0.163,-0.227C0.15,-0.221 0.14,-0.218 0.133,-0.218C0.129,-0.218 0.126,-0.22 0.123,-0.224C0.12,-0.227 0.118,-0.232 0.118,-0.237C0.118,-0.246 0.122,-0.254 0.131,-0.259C0.139,-0.264 0.148,-0.269 0.158,-0.274C0.168,-0.278 0.177,-0.283 0.186,-0.289C0.194,-0.295 0.198,-0.303 0.198,-0.314C0.198,-0.315 0.196,-0.319 0.193,-0.324C0.19,-0.329 0.181,-0.332 0.166,-0.332C0.159,-0.332 0.152,-0.328 0.143,-0.321C0.134,-0.313 0.126,-0.303 0.118,-0.29C0.11,-0.277 0.103,-0.261 0.098,-0.244C0.093,-0.226 0.09,-0.207 0.09,-0.186C0.09,-0.169 0.093,-0.153 0.1,-0.139C0.106,-0.125 0.114,-0.113 0.124,-0.104C0.134,-0.094 0.146,-0.086 0.159,-0.081C0.172,-0.076 0.186,-0.073 0.2,-0.073C0.21,-0.073 0.221,-0.075 0.233,-0.08C0.244,-0.084 0.255,-0.089 0.266,-0.094C0.276,-0.098 0.285,-0.103 0.293,-0.108C0.3,-0.112 0.305,-0.114 0.307,-0.114C0.309,-0.114 0.311,-0.113 0.314,-0.111C0.316,-0.109 0.317,-0.107 0.318,-0.105Z" style="fill:rgb(53,51,57);fill-rule:nonzero;"/>
            </g>
            <g transform="matrix(144,0,0,144,304.848,0)">
                <path d="M0.278,-0.199C0.278,-0.169 0.275,-0.143 0.268,-0.12C0.261,-0.097 0.252,-0.079 0.242,-0.064C0.232,-0.049 0.222,-0.037 0.212,-0.03C0.201,-0.023 0.193,-0.019 0.186,-0.019C0.177,-0.019 0.168,-0.023 0.159,-0.032C0.15,-0.04 0.146,-0.048 0.146,-0.055C0.146,-0.066 0.15,-0.071 0.159,-0.071C0.162,-0.071 0.166,-0.07 0.169,-0.068C0.172,-0.065 0.175,-0.063 0.178,-0.062C0.189,-0.071 0.2,-0.087 0.211,-0.108C0.221,-0.129 0.226,-0.16 0.226,-0.199C0.226,-0.215 0.224,-0.229 0.221,-0.242C0.218,-0.255 0.214,-0.265 0.21,-0.274C0.205,-0.283 0.201,-0.289 0.196,-0.294C0.191,-0.299 0.188,-0.301 0.186,-0.301C0.179,-0.301 0.173,-0.294 0.167,-0.281C0.16,-0.268 0.155,-0.253 0.15,-0.236C0.145,-0.219 0.142,-0.202 0.139,-0.186C0.136,-0.169 0.134,-0.158 0.134,-0.152C0.135,-0.148 0.135,-0.144 0.136,-0.141C0.137,-0.138 0.137,-0.134 0.138,-0.131C0.139,-0.128 0.139,-0.124 0.139,-0.121C0.139,-0.108 0.135,-0.097 0.126,-0.087C0.117,-0.077 0.109,-0.072 0.101,-0.072C0.097,-0.072 0.094,-0.075 0.092,-0.081C0.089,-0.086 0.087,-0.093 0.086,-0.102C0.085,-0.111 0.084,-0.12 0.083,-0.129C0.082,-0.138 0.08,-0.147 0.079,-0.154C0.074,-0.166 0.067,-0.185 0.058,-0.211C0.049,-0.237 0.04,-0.265 0.031,-0.295C0.021,-0.324 0.012,-0.353 0.004,-0.381C-0.005,-0.409 -0.011,-0.431 -0.015,-0.448C-0.024,-0.484 -0.032,-0.516 -0.037,-0.543C-0.042,-0.57 -0.046,-0.593 -0.049,-0.614C-0.051,-0.634 -0.053,-0.651 -0.054,-0.666C-0.055,-0.681 -0.055,-0.693 -0.055,-0.703C-0.055,-0.709 -0.053,-0.714 -0.048,-0.717C-0.043,-0.72 -0.038,-0.722 -0.034,-0.722C-0.028,-0.722 -0.024,-0.721 -0.021,-0.719C-0.018,-0.716 -0.017,-0.711 -0.016,-0.704C-0.014,-0.697 -0.014,-0.686 -0.013,-0.672C-0.012,-0.658 -0.01,-0.639 -0.007,-0.616C-0.006,-0.605 -0.003,-0.589 0.001,-0.569C0.004,-0.549 0.009,-0.527 0.015,-0.502C0.021,-0.477 0.028,-0.452 0.035,-0.425C0.042,-0.397 0.049,-0.372 0.057,-0.347C0.064,-0.322 0.072,-0.3 0.08,-0.279C0.087,-0.258 0.094,-0.242 0.101,-0.23C0.107,-0.254 0.114,-0.276 0.123,-0.295C0.13,-0.311 0.139,-0.326 0.15,-0.34C0.161,-0.353 0.174,-0.36 0.189,-0.36C0.195,-0.36 0.203,-0.357 0.213,-0.352C0.223,-0.347 0.233,-0.338 0.243,-0.325C0.252,-0.312 0.261,-0.296 0.268,-0.275C0.275,-0.254 0.278,-0.229 0.278,-0.199Z" style="fill:rgb(53,51,57);fill-rule:nonzero;"/>
            </g>
            <g transform="matrix(144,0,0,144,352.512,0)">
                <path d="M0.361,-0.289C0.361,-0.272 0.356,-0.255 0.347,-0.239C0.337,-0.223 0.325,-0.208 0.311,-0.195C0.297,-0.181 0.282,-0.168 0.265,-0.157C0.248,-0.145 0.233,-0.135 0.219,-0.126C0.206,-0.117 0.195,-0.109 0.186,-0.103C0.177,-0.097 0.173,-0.092 0.173,-0.089C0.173,-0.08 0.174,-0.068 0.176,-0.053C0.178,-0.037 0.181,-0.02 0.184,-0.002C0.187,0.017 0.19,0.036 0.193,0.055C0.196,0.074 0.198,0.092 0.199,0.108C0.199,0.109 0.2,0.112 0.201,0.117C0.202,0.122 0.203,0.128 0.205,0.135C0.206,0.142 0.208,0.148 0.209,0.154C0.21,0.159 0.21,0.163 0.21,0.164C0.21,0.169 0.21,0.174 0.21,0.18C0.209,0.185 0.208,0.191 0.207,0.196C0.205,0.201 0.202,0.205 0.199,0.208C0.196,0.211 0.191,0.213 0.186,0.213C0.179,0.213 0.173,0.21 0.17,0.204C0.167,0.197 0.165,0.191 0.165,0.185C0.165,0.184 0.165,0.182 0.166,0.181C0.166,0.18 0.166,0.178 0.166,0.176C0.166,0.169 0.163,0.149 0.158,0.117C0.153,0.085 0.147,0.047 0.14,0.003C0.133,-0.042 0.127,-0.09 0.122,-0.141C0.117,-0.192 0.114,-0.24 0.114,-0.285L0.116,-0.308C0.109,-0.307 0.099,-0.304 0.087,-0.299C0.074,-0.294 0.061,-0.287 0.048,-0.28C0.035,-0.272 0.024,-0.264 0.015,-0.256C0.005,-0.247 0,-0.24 0,-0.233L-0.007,-0.233C-0.009,-0.233 -0.012,-0.234 -0.015,-0.237C-0.017,-0.24 -0.02,-0.243 -0.023,-0.246C-0.025,-0.249 -0.027,-0.253 -0.029,-0.256C-0.031,-0.259 -0.032,-0.262 -0.032,-0.263C-0.032,-0.277 -0.024,-0.29 -0.007,-0.303C0.01,-0.315 0.031,-0.326 0.056,-0.336C0.081,-0.345 0.108,-0.353 0.138,-0.359C0.168,-0.364 0.196,-0.367 0.223,-0.367C0.249,-0.367 0.271,-0.364 0.289,-0.358C0.306,-0.352 0.32,-0.345 0.331,-0.337C0.342,-0.328 0.349,-0.32 0.354,-0.311C0.359,-0.302 0.361,-0.295 0.361,-0.289ZM0.312,-0.292C0.312,-0.299 0.304,-0.306 0.287,-0.313C0.27,-0.32 0.251,-0.323 0.228,-0.323C0.208,-0.323 0.193,-0.322 0.184,-0.321C0.175,-0.32 0.168,-0.318 0.165,-0.317C0.164,-0.306 0.163,-0.294 0.162,-0.279C0.161,-0.264 0.161,-0.249 0.161,-0.234C0.161,-0.218 0.162,-0.202 0.163,-0.188C0.164,-0.173 0.165,-0.16 0.166,-0.15C0.175,-0.156 0.188,-0.164 0.205,-0.175C0.221,-0.185 0.237,-0.197 0.253,-0.21C0.269,-0.223 0.283,-0.236 0.295,-0.251C0.306,-0.265 0.312,-0.279 0.312,-0.292Z" style="fill:rgb(53,51,57);fill-rule:nonzero;"/>
            </g>
            <g transform="matrix(144,0,0,144,406.8,0)">
                <path d="M0.515,-0.208C0.515,-0.196 0.509,-0.181 0.499,-0.164C0.488,-0.146 0.473,-0.129 0.454,-0.112C0.435,-0.095 0.414,-0.081 0.389,-0.07C0.364,-0.058 0.339,-0.052 0.312,-0.052C0.3,-0.052 0.287,-0.054 0.274,-0.058C0.261,-0.062 0.248,-0.068 0.235,-0.076C0.222,-0.083 0.211,-0.093 0.201,-0.104C0.191,-0.115 0.184,-0.127 0.179,-0.141C0.175,-0.137 0.17,-0.13 0.165,-0.121C0.159,-0.112 0.153,-0.102 0.146,-0.093C0.139,-0.083 0.132,-0.075 0.124,-0.068C0.116,-0.061 0.108,-0.057 0.099,-0.057C0.09,-0.057 0.083,-0.062 0.078,-0.071C0.072,-0.08 0.067,-0.09 0.064,-0.101C0.061,-0.112 0.058,-0.122 0.057,-0.132C0.056,-0.142 0.055,-0.148 0.055,-0.149C0.055,-0.157 0.057,-0.172 0.062,-0.195C0.067,-0.217 0.074,-0.24 0.083,-0.264C0.092,-0.288 0.104,-0.309 0.119,-0.328C0.133,-0.347 0.15,-0.356 0.169,-0.356C0.176,-0.356 0.181,-0.353 0.184,-0.347C0.186,-0.34 0.187,-0.334 0.187,-0.328L0.187,-0.298C0.19,-0.295 0.194,-0.294 0.198,-0.293C0.201,-0.292 0.205,-0.29 0.208,-0.289C0.211,-0.287 0.213,-0.284 0.215,-0.281C0.216,-0.278 0.217,-0.272 0.217,-0.265C0.217,-0.26 0.217,-0.256 0.216,-0.253C0.215,-0.249 0.215,-0.245 0.215,-0.242C0.215,-0.225 0.216,-0.208 0.219,-0.191C0.222,-0.174 0.227,-0.16 0.235,-0.147C0.243,-0.133 0.254,-0.123 0.268,-0.115C0.282,-0.106 0.301,-0.102 0.324,-0.102C0.353,-0.102 0.378,-0.108 0.399,-0.121C0.419,-0.133 0.436,-0.147 0.45,-0.162C0.463,-0.177 0.474,-0.19 0.482,-0.203C0.49,-0.215 0.497,-0.221 0.502,-0.221C0.511,-0.221 0.515,-0.217 0.515,-0.208ZM0.164,-0.252C0.164,-0.255 0.163,-0.257 0.162,-0.26C0.161,-0.262 0.16,-0.264 0.16,-0.266C0.16,-0.269 0.161,-0.271 0.162,-0.273C0.163,-0.275 0.164,-0.278 0.164,-0.281C0.164,-0.283 0.163,-0.285 0.162,-0.286C0.161,-0.287 0.16,-0.288 0.16,-0.289C0.154,-0.288 0.148,-0.282 0.142,-0.272C0.135,-0.262 0.129,-0.25 0.124,-0.237C0.118,-0.224 0.113,-0.21 0.11,-0.197C0.107,-0.183 0.105,-0.172 0.105,-0.163C0.105,-0.158 0.106,-0.151 0.109,-0.14C0.112,-0.129 0.115,-0.122 0.118,-0.119C0.129,-0.142 0.14,-0.165 0.15,-0.187C0.159,-0.209 0.164,-0.231 0.164,-0.252Z" style="fill:rgb(53,51,57);fill-rule:nonzero;"/>
            </g>
            <g transform="matrix(144,0,0,144,476.928,0)">
                <path d="M0.288,-0.088C0.288,-0.081 0.285,-0.076 0.28,-0.073C0.275,-0.07 0.272,-0.067 0.272,-0.062C0.271,-0.063 0.273,-0.059 0.276,-0.051C0.279,-0.043 0.282,-0.035 0.285,-0.026C0.29,-0.008 0.294,0.008 0.298,0.021C0.301,0.034 0.304,0.047 0.307,0.058C0.309,0.069 0.311,0.081 0.312,0.092C0.313,0.103 0.314,0.116 0.314,0.13C0.314,0.144 0.312,0.158 0.307,0.173C0.302,0.188 0.296,0.201 0.287,0.212C0.278,0.223 0.268,0.233 0.255,0.24C0.242,0.247 0.228,0.251 0.212,0.251C0.187,0.251 0.168,0.246 0.154,0.236C0.139,0.226 0.128,0.215 0.121,0.202C0.114,0.189 0.109,0.177 0.107,0.165C0.105,0.152 0.104,0.144 0.104,0.14C0.104,0.115 0.11,0.091 0.123,0.066C0.136,0.041 0.15,0.019 0.165,-0.001C0.18,-0.021 0.194,-0.038 0.207,-0.051C0.22,-0.064 0.226,-0.072 0.226,-0.074L0.215,-0.107C0.208,-0.099 0.203,-0.09 0.198,-0.081C0.193,-0.071 0.187,-0.062 0.182,-0.054C0.176,-0.045 0.169,-0.038 0.162,-0.033C0.154,-0.027 0.144,-0.024 0.133,-0.024C0.121,-0.024 0.109,-0.028 0.097,-0.035C0.085,-0.042 0.074,-0.053 0.065,-0.068C0.056,-0.083 0.048,-0.1 0.043,-0.121C0.037,-0.142 0.034,-0.166 0.034,-0.193C0.034,-0.208 0.036,-0.228 0.041,-0.251C0.046,-0.274 0.053,-0.296 0.063,-0.317C0.073,-0.338 0.086,-0.357 0.101,-0.372C0.116,-0.387 0.133,-0.394 0.153,-0.394C0.164,-0.394 0.175,-0.392 0.185,-0.388C0.194,-0.384 0.199,-0.379 0.199,-0.373C0.199,-0.368 0.198,-0.363 0.196,-0.36C0.194,-0.357 0.191,-0.353 0.188,-0.35C0.186,-0.351 0.184,-0.353 0.182,-0.354C0.179,-0.355 0.176,-0.356 0.172,-0.356C0.157,-0.356 0.144,-0.349 0.133,-0.337C0.121,-0.324 0.111,-0.308 0.103,-0.289C0.095,-0.27 0.089,-0.25 0.085,-0.229C0.08,-0.208 0.078,-0.19 0.078,-0.175C0.078,-0.141 0.084,-0.115 0.095,-0.098C0.106,-0.08 0.118,-0.071 0.131,-0.071C0.137,-0.071 0.143,-0.076 0.151,-0.085C0.158,-0.094 0.164,-0.103 0.171,-0.115C0.177,-0.126 0.182,-0.136 0.187,-0.146C0.192,-0.156 0.194,-0.162 0.195,-0.164C0.196,-0.171 0.197,-0.178 0.197,-0.187L0.196,-0.239C0.196,-0.256 0.197,-0.271 0.2,-0.283C0.203,-0.294 0.209,-0.3 0.22,-0.3C0.231,-0.3 0.238,-0.297 0.243,-0.291C0.248,-0.284 0.25,-0.277 0.25,-0.268L0.249,-0.223C0.249,-0.215 0.249,-0.208 0.249,-0.203C0.248,-0.197 0.248,-0.193 0.248,-0.192C0.248,-0.188 0.249,-0.182 0.25,-0.175C0.251,-0.167 0.252,-0.159 0.253,-0.152C0.254,-0.144 0.255,-0.137 0.256,-0.131C0.257,-0.124 0.257,-0.12 0.258,-0.118C0.259,-0.116 0.26,-0.113 0.261,-0.109C0.262,-0.105 0.264,-0.102 0.265,-0.1C0.266,-0.101 0.267,-0.103 0.269,-0.105C0.271,-0.106 0.273,-0.108 0.274,-0.109C0.277,-0.107 0.281,-0.103 0.284,-0.098C0.287,-0.092 0.288,-0.089 0.288,-0.088ZM0.254,0.039C0.251,0.028 0.248,0.018 0.245,0.007C0.242,-0.004 0.238,-0.015 0.235,-0.026C0.224,-0.012 0.213,0.002 0.203,0.015C0.192,0.028 0.183,0.04 0.175,0.053C0.166,0.066 0.16,0.079 0.155,0.093C0.15,0.106 0.147,0.121 0.147,0.136C0.147,0.157 0.153,0.174 0.165,0.187C0.176,0.2 0.189,0.207 0.203,0.207C0.218,0.207 0.233,0.201 0.247,0.19C0.26,0.179 0.267,0.162 0.267,0.141C0.267,0.127 0.267,0.115 0.266,0.106C0.265,0.097 0.265,0.089 0.264,0.082C0.263,0.075 0.261,0.068 0.26,0.062C0.258,0.055 0.256,0.048 0.254,0.039Z" style="fill:rgb(53,51,57);fill-rule:nonzero;"/>
            </g>
            <g transform="matrix(144,0,0,144,524.592,0)">
                <path d="M0.318,-0.105C0.319,-0.104 0.319,-0.102 0.319,-0.099C0.319,-0.095 0.316,-0.089 0.31,-0.081C0.308,-0.078 0.304,-0.074 0.297,-0.068C0.29,-0.062 0.281,-0.056 0.27,-0.05C0.259,-0.044 0.245,-0.039 0.229,-0.034C0.212,-0.029 0.193,-0.027 0.171,-0.027C0.156,-0.027 0.141,-0.031 0.126,-0.038C0.111,-0.045 0.098,-0.055 0.087,-0.069C0.076,-0.082 0.066,-0.099 0.059,-0.12C0.052,-0.14 0.048,-0.164 0.048,-0.191C0.048,-0.217 0.051,-0.241 0.058,-0.264C0.065,-0.287 0.073,-0.307 0.084,-0.324C0.094,-0.341 0.105,-0.355 0.118,-0.365C0.131,-0.375 0.143,-0.38 0.155,-0.38C0.166,-0.38 0.177,-0.378 0.188,-0.374C0.199,-0.369 0.209,-0.364 0.218,-0.357C0.227,-0.35 0.234,-0.343 0.239,-0.335C0.244,-0.326 0.247,-0.318 0.247,-0.309C0.247,-0.299 0.243,-0.289 0.234,-0.278C0.225,-0.267 0.214,-0.258 0.201,-0.249C0.188,-0.24 0.176,-0.232 0.163,-0.227C0.15,-0.221 0.14,-0.218 0.133,-0.218C0.129,-0.218 0.126,-0.22 0.123,-0.224C0.12,-0.227 0.118,-0.232 0.118,-0.237C0.118,-0.246 0.122,-0.254 0.131,-0.259C0.139,-0.264 0.148,-0.269 0.158,-0.274C0.168,-0.278 0.177,-0.283 0.186,-0.289C0.194,-0.295 0.198,-0.303 0.198,-0.314C0.198,-0.315 0.196,-0.319 0.193,-0.324C0.19,-0.329 0.181,-0.332 0.166,-0.332C0.159,-0.332 0.152,-0.328 0.143,-0.321C0.134,-0.313 0.126,-0.303 0.118,-0.29C0.11,-0.277 0.103,-0.261 0.098,-0.244C0.093,-0.226 0.09,-0.207 0.09,-0.186C0.09,-0.169 0.093,-0.153 0.1,-0.139C0.106,-0.125 0.114,-0.113 0.124,-0.104C0.134,-0.094 0.146,-0.086 0.159,-0.081C0.172,-0.076 0.186,-0.073 0.2,-0.073C0.21,-0.073 0.221,-0.075 0.233,-0.08C0.244,-0.084 0.255,-0.089 0.266,-0.094C0.276,-0.098 0.285,-0.103 0.293,-0.108C0.3,-0.112 0.305,-0.114 0.307,-0.114C0.309,-0.114 0.311,-0.113 0.314,-0.111C0.316,-0.109 0.317,-0.107 0.318,-0.105Z" style="fill:rgb(53,51,57);fill-rule:nonzero;"/>
            </g>
        </g>
        <g transform="matrix(1,0,0,1,406.832,326.593)">
            <g transform="matrix(144,0,0,144,0,0)">
                <path d="M0.177,-0.479C0.179,-0.479 0.184,-0.478 0.192,-0.477C0.2,-0.476 0.204,-0.473 0.204,-0.47C0.204,-0.469 0.202,-0.466 0.199,-0.463C0.196,-0.46 0.193,-0.457 0.192,-0.456C0.179,-0.443 0.166,-0.425 0.154,-0.404C0.141,-0.382 0.13,-0.359 0.121,-0.336C0.112,-0.312 0.104,-0.289 0.099,-0.266C0.093,-0.243 0.09,-0.223 0.09,-0.206C0.09,-0.189 0.092,-0.171 0.096,-0.153C0.099,-0.135 0.104,-0.119 0.111,-0.104C0.117,-0.089 0.124,-0.077 0.133,-0.068C0.141,-0.059 0.15,-0.054 0.159,-0.054C0.161,-0.054 0.163,-0.055 0.166,-0.058C0.169,-0.06 0.171,-0.061 0.174,-0.062C0.177,-0.062 0.18,-0.06 0.182,-0.055C0.183,-0.05 0.184,-0.046 0.184,-0.041C0.184,-0.038 0.182,-0.035 0.178,-0.032C0.174,-0.029 0.17,-0.027 0.165,-0.025C0.16,-0.023 0.155,-0.022 0.15,-0.021C0.145,-0.02 0.141,-0.019 0.14,-0.019C0.131,-0.019 0.121,-0.023 0.111,-0.031C0.101,-0.038 0.092,-0.05 0.083,-0.065C0.074,-0.08 0.067,-0.098 0.062,-0.121C0.056,-0.143 0.053,-0.169 0.053,-0.198C0.053,-0.233 0.057,-0.267 0.067,-0.301C0.076,-0.334 0.087,-0.364 0.1,-0.391C0.113,-0.417 0.126,-0.438 0.14,-0.455C0.154,-0.471 0.166,-0.479 0.177,-0.479Z" style="fill:rgb(53,51,57);fill-rule:nonzero;"/>
            </g>
            <g transform="matrix(144,0,0,144,34.272,0)">
                <path d="M0.441,-0.145C0.441,-0.115 0.436,-0.092 0.425,-0.075C0.414,-0.057 0.399,-0.042 0.378,-0.027C0.373,-0.024 0.365,-0.02 0.356,-0.015C0.347,-0.01 0.336,-0.006 0.325,-0.002C0.314,0.002 0.302,0.005 0.289,0.008C0.276,0.011 0.265,0.012 0.254,0.012C0.224,0.012 0.201,0.009 0.186,0.003C0.171,-0.004 0.163,-0.011 0.163,-0.02C0.163,-0.029 0.166,-0.037 0.171,-0.043C0.176,-0.049 0.181,-0.052 0.185,-0.053L0.196,-0.045C0.199,-0.042 0.204,-0.038 0.21,-0.035C0.216,-0.031 0.226,-0.029 0.239,-0.029C0.252,-0.029 0.267,-0.031 0.285,-0.036C0.303,-0.04 0.32,-0.047 0.337,-0.056C0.353,-0.065 0.367,-0.076 0.379,-0.089C0.39,-0.102 0.396,-0.118 0.396,-0.135C0.396,-0.15 0.385,-0.165 0.362,-0.178C0.339,-0.191 0.302,-0.199 0.253,-0.204C0.228,-0.206 0.203,-0.209 0.178,-0.214C0.153,-0.218 0.131,-0.224 0.112,-0.232C0.092,-0.239 0.076,-0.249 0.064,-0.261C0.052,-0.272 0.046,-0.287 0.046,-0.304C0.046,-0.321 0.051,-0.337 0.06,-0.352C0.069,-0.367 0.081,-0.382 0.095,-0.395C0.108,-0.408 0.122,-0.419 0.137,-0.429C0.152,-0.439 0.164,-0.447 0.174,-0.454C0.182,-0.459 0.193,-0.465 0.208,-0.473C0.222,-0.48 0.237,-0.488 0.254,-0.495C0.27,-0.501 0.286,-0.507 0.303,-0.513C0.319,-0.518 0.333,-0.52 0.344,-0.52C0.357,-0.52 0.366,-0.516 0.371,-0.509C0.376,-0.502 0.378,-0.491 0.378,-0.478C0.378,-0.467 0.377,-0.455 0.374,-0.442C0.371,-0.429 0.368,-0.417 0.365,-0.405C0.362,-0.393 0.359,-0.383 0.356,-0.374C0.353,-0.365 0.35,-0.359 0.349,-0.356C0.346,-0.35 0.343,-0.346 0.34,-0.344C0.337,-0.342 0.334,-0.341 0.333,-0.341C0.33,-0.341 0.329,-0.343 0.329,-0.346C0.329,-0.348 0.33,-0.352 0.331,-0.358C0.332,-0.363 0.333,-0.37 0.335,-0.378C0.336,-0.386 0.338,-0.395 0.339,-0.404C0.339,-0.413 0.34,-0.423 0.34,-0.432C0.34,-0.447 0.339,-0.457 0.338,-0.464C0.337,-0.471 0.331,-0.474 0.322,-0.474C0.313,-0.474 0.3,-0.472 0.284,-0.467C0.268,-0.462 0.252,-0.455 0.235,-0.448C0.217,-0.44 0.2,-0.43 0.183,-0.417C0.166,-0.404 0.15,-0.391 0.137,-0.378C0.124,-0.365 0.113,-0.352 0.105,-0.34C0.096,-0.327 0.092,-0.317 0.092,-0.31C0.092,-0.302 0.097,-0.295 0.109,-0.288C0.119,-0.281 0.133,-0.274 0.151,-0.269C0.167,-0.264 0.186,-0.259 0.207,-0.255C0.228,-0.251 0.248,-0.248 0.268,-0.246C0.285,-0.244 0.303,-0.241 0.323,-0.238C0.343,-0.235 0.362,-0.229 0.379,-0.222C0.396,-0.215 0.411,-0.205 0.423,-0.193C0.435,-0.18 0.441,-0.164 0.441,-0.145Z" style="fill:rgb(53,51,57);fill-rule:nonzero;"/>
            </g>
            <g transform="matrix(144,0,0,144,99.936,0)">
                <path d="M0.099,-0.46C0.099,-0.459 0.097,-0.456 0.092,-0.452C0.087,-0.448 0.082,-0.444 0.076,-0.44C0.069,-0.435 0.063,-0.431 0.056,-0.428C0.049,-0.425 0.044,-0.423 0.04,-0.423C0.037,-0.423 0.034,-0.423 0.03,-0.424C0.025,-0.424 0.021,-0.425 0.017,-0.427C0.012,-0.429 0.008,-0.432 0.005,-0.436C0.002,-0.439 0,-0.444 0,-0.45C0,-0.459 0.003,-0.468 0.01,-0.477C0.017,-0.485 0.025,-0.489 0.036,-0.489C0.038,-0.489 0.043,-0.488 0.05,-0.487C0.056,-0.485 0.064,-0.483 0.071,-0.48C0.078,-0.477 0.085,-0.474 0.091,-0.471C0.096,-0.468 0.099,-0.464 0.099,-0.46ZM0.132,-0.086C0.132,-0.081 0.129,-0.077 0.122,-0.074C0.115,-0.071 0.109,-0.069 0.106,-0.069C0.099,-0.069 0.093,-0.073 0.088,-0.082C0.083,-0.091 0.078,-0.101 0.074,-0.112C0.07,-0.123 0.067,-0.134 0.064,-0.145C0.061,-0.155 0.059,-0.162 0.058,-0.166C0.056,-0.173 0.053,-0.181 0.05,-0.19C0.047,-0.199 0.044,-0.208 0.041,-0.217C0.038,-0.226 0.035,-0.233 0.033,-0.24C0.031,-0.247 0.03,-0.25 0.03,-0.251C0.03,-0.26 0.032,-0.269 0.036,-0.277C0.039,-0.285 0.044,-0.289 0.049,-0.289C0.055,-0.289 0.061,-0.284 0.068,-0.275C0.075,-0.266 0.081,-0.254 0.088,-0.24C0.094,-0.225 0.1,-0.21 0.105,-0.193C0.11,-0.175 0.115,-0.16 0.119,-0.145C0.123,-0.129 0.126,-0.116 0.129,-0.106C0.131,-0.094 0.132,-0.088 0.132,-0.086Z" style="fill:rgb(53,51,57);fill-rule:nonzero;"/>
            </g>
            <g transform="matrix(144,0,0,144,122.256,0)">
                <path d="M0.484,-0.094C0.484,-0.089 0.482,-0.084 0.479,-0.08C0.476,-0.076 0.472,-0.073 0.467,-0.071C0.462,-0.068 0.458,-0.066 0.453,-0.065C0.448,-0.064 0.443,-0.063 0.44,-0.063C0.426,-0.063 0.414,-0.071 0.404,-0.086C0.394,-0.1 0.386,-0.117 0.379,-0.136C0.372,-0.154 0.368,-0.171 0.365,-0.187C0.362,-0.203 0.36,-0.212 0.36,-0.213C0.356,-0.206 0.352,-0.193 0.348,-0.176C0.343,-0.159 0.338,-0.141 0.332,-0.124C0.326,-0.106 0.319,-0.09 0.31,-0.077C0.301,-0.063 0.289,-0.056 0.275,-0.056C0.268,-0.056 0.262,-0.06 0.256,-0.068C0.25,-0.076 0.244,-0.086 0.239,-0.099C0.234,-0.112 0.229,-0.126 0.224,-0.142C0.219,-0.158 0.214,-0.174 0.209,-0.189C0.204,-0.204 0.199,-0.219 0.194,-0.233C0.189,-0.246 0.185,-0.257 0.18,-0.265C0.176,-0.255 0.173,-0.241 0.17,-0.224C0.167,-0.207 0.164,-0.189 0.162,-0.17C0.16,-0.151 0.158,-0.132 0.157,-0.113C0.156,-0.094 0.155,-0.078 0.155,-0.064C0.155,-0.055 0.153,-0.048 0.148,-0.044C0.142,-0.04 0.137,-0.038 0.132,-0.038C0.125,-0.038 0.117,-0.043 0.11,-0.053C0.103,-0.062 0.095,-0.075 0.088,-0.09C0.081,-0.105 0.074,-0.123 0.068,-0.142C0.061,-0.161 0.056,-0.181 0.051,-0.2C0.046,-0.219 0.042,-0.238 0.039,-0.256C0.036,-0.273 0.035,-0.288 0.035,-0.3C0.035,-0.309 0.035,-0.317 0.036,-0.324C0.037,-0.33 0.037,-0.336 0.038,-0.341C0.038,-0.346 0.038,-0.349 0.038,-0.35C0.038,-0.352 0.038,-0.353 0.037,-0.354C0.036,-0.355 0.035,-0.356 0.035,-0.359C0.035,-0.361 0.038,-0.364 0.043,-0.369C0.048,-0.373 0.053,-0.375 0.058,-0.375C0.067,-0.375 0.074,-0.373 0.077,-0.369C0.08,-0.365 0.081,-0.36 0.081,-0.355C0.081,-0.353 0.081,-0.35 0.081,-0.346C0.08,-0.342 0.08,-0.333 0.08,-0.319C0.08,-0.31 0.082,-0.296 0.085,-0.277C0.088,-0.258 0.092,-0.239 0.097,-0.22C0.102,-0.201 0.107,-0.183 0.112,-0.167C0.117,-0.15 0.121,-0.14 0.124,-0.136C0.125,-0.139 0.126,-0.142 0.127,-0.146C0.127,-0.149 0.127,-0.152 0.128,-0.154L0.139,-0.236C0.142,-0.257 0.147,-0.279 0.156,-0.302C0.164,-0.325 0.173,-0.342 0.182,-0.355C0.185,-0.36 0.189,-0.363 0.193,-0.363C0.197,-0.363 0.201,-0.36 0.204,-0.354C0.215,-0.335 0.224,-0.317 0.23,-0.299C0.235,-0.28 0.24,-0.262 0.245,-0.245C0.249,-0.227 0.254,-0.209 0.26,-0.192C0.265,-0.174 0.274,-0.156 0.286,-0.138C0.291,-0.147 0.298,-0.161 0.306,-0.181C0.314,-0.2 0.322,-0.22 0.331,-0.24C0.339,-0.26 0.347,-0.278 0.354,-0.293C0.361,-0.308 0.367,-0.315 0.371,-0.315L0.391,-0.313C0.397,-0.313 0.402,-0.306 0.406,-0.293C0.41,-0.279 0.413,-0.263 0.417,-0.245C0.42,-0.226 0.423,-0.208 0.426,-0.19C0.428,-0.171 0.432,-0.157 0.436,-0.148C0.439,-0.141 0.443,-0.135 0.448,-0.129C0.453,-0.123 0.459,-0.117 0.464,-0.112C0.471,-0.106 0.477,-0.1 0.484,-0.094Z" style="fill:rgb(53,51,57);fill-rule:nonzero;"/>
            </g>
            <g transform="matrix(144,0,0,144,197.712,0)">
                <path d="M0.361,-0.289C0.361,-0.272 0.356,-0.255 0.347,-0.239C0.337,-0.223 0.325,-0.208 0.311,-0.195C0.297,-0.181 0.282,-0.168 0.265,-0.157C0.248,-0.145 0.233,-0.135 0.219,-0.126C0.206,-0.117 0.195,-0.109 0.186,-0.103C0.177,-0.097 0.173,-0.092 0.173,-0.089C0.173,-0.08 0.174,-0.068 0.176,-0.053C0.178,-0.037 0.181,-0.02 0.184,-0.002C0.187,0.017 0.19,0.036 0.193,0.055C0.196,0.074 0.198,0.092 0.199,0.108C0.199,0.109 0.2,0.112 0.201,0.117C0.202,0.122 0.203,0.128 0.205,0.135C0.206,0.142 0.208,0.148 0.209,0.154C0.21,0.159 0.21,0.163 0.21,0.164C0.21,0.169 0.21,0.174 0.21,0.18C0.209,0.185 0.208,0.191 0.207,0.196C0.205,0.201 0.202,0.205 0.199,0.208C0.196,0.211 0.191,0.213 0.186,0.213C0.179,0.213 0.173,0.21 0.17,0.204C0.167,0.197 0.165,0.191 0.165,0.185C0.165,0.184 0.165,0.182 0.166,0.181C0.166,0.18 0.166,0.178 0.166,0.176C0.166,0.169 0.163,0.149 0.158,0.117C0.153,0.085 0.147,0.047 0.14,0.003C0.133,-0.042 0.127,-0.09 0.122,-0.141C0.117,-0.192 0.114,-0.24 0.114,-0.285L0.116,-0.308C0.109,-0.307 0.099,-0.304 0.087,-0.299C0.074,-0.294 0.061,-0.287 0.048,-0.28C0.035,-0.272 0.024,-0.264 0.015,-0.256C0.005,-0.247 0,-0.24 0,-0.233L-0.007,-0.233C-0.009,-0.233 -0.012,-0.234 -0.015,-0.237C-0.017,-0.24 -0.02,-0.243 -0.023,-0.246C-0.025,-0.249 -0.027,-0.253 -0.029,-0.256C-0.031,-0.259 -0.032,-0.262 -0.032,-0.263C-0.032,-0.277 -0.024,-0.29 -0.007,-0.303C0.01,-0.315 0.031,-0.326 0.056,-0.336C0.081,-0.345 0.108,-0.353 0.138,-0.359C0.168,-0.364 0.196,-0.367 0.223,-0.367C0.249,-0.367 0.271,-0.364 0.289,-0.358C0.306,-0.352 0.32,-0.345 0.331,-0.337C0.342,-0.328 0.349,-0.32 0.354,-0.311C0.359,-0.302 0.361,-0.295 0.361,-0.289ZM0.312,-0.292C0.312,-0.299 0.304,-0.306 0.287,-0.313C0.27,-0.32 0.251,-0.323 0.228,-0.323C0.208,-0.323 0.193,-0.322 0.184,-0.321C0.175,-0.32 0.168,-0.318 0.165,-0.317C0.164,-0.306 0.163,-0.294 0.162,-0.279C0.161,-0.264 0.161,-0.249 0.161,-0.234C0.161,-0.218 0.162,-0.202 0.163,-0.188C0.164,-0.173 0.165,-0.16 0.166,-0.15C0.175,-0.156 0.188,-0.164 0.205,-0.175C0.221,-0.185 0.237,-0.197 0.253,-0.21C0.269,-0.223 0.283,-0.236 0.295,-0.251C0.306,-0.265 0.312,-0.279 0.312,-0.292Z" style="fill:rgb(53,51,57);fill-rule:nonzero;"/>
            </g>
            <g transform="matrix(144,0,0,144,252,0)">
                <path d="M0.173,-0.029C0.173,-0.024 0.171,-0.02 0.167,-0.017C0.163,-0.014 0.158,-0.013 0.153,-0.013C0.147,-0.013 0.141,-0.019 0.135,-0.03C0.128,-0.041 0.122,-0.056 0.116,-0.073C0.11,-0.09 0.104,-0.109 0.099,-0.13C0.094,-0.15 0.089,-0.169 0.085,-0.187C0.081,-0.204 0.078,-0.219 0.076,-0.231C0.073,-0.243 0.072,-0.25 0.072,-0.251C0.072,-0.254 0.071,-0.261 0.069,-0.272C0.066,-0.283 0.063,-0.301 0.06,-0.325C0.056,-0.349 0.052,-0.38 0.048,-0.419C0.043,-0.457 0.039,-0.504 0.034,-0.561C0.034,-0.567 0.035,-0.575 0.037,-0.584C0.039,-0.593 0.044,-0.598 0.051,-0.598C0.06,-0.598 0.068,-0.592 0.073,-0.579C0.078,-0.566 0.082,-0.551 0.085,-0.532C0.088,-0.513 0.09,-0.494 0.091,-0.474C0.092,-0.453 0.094,-0.435 0.096,-0.42C0.099,-0.399 0.101,-0.379 0.104,-0.362C0.106,-0.345 0.108,-0.328 0.111,-0.311C0.113,-0.294 0.116,-0.276 0.12,-0.257C0.123,-0.238 0.128,-0.218 0.133,-0.195L0.173,-0.029Z" style="fill:rgb(53,51,57);fill-rule:nonzero;"/>
            </g>
            <g transform="matrix(144,0,0,144,282.384,0)">
                <path d="M0.318,-0.105C0.319,-0.104 0.319,-0.102 0.319,-0.099C0.319,-0.095 0.316,-0.089 0.31,-0.081C0.308,-0.078 0.304,-0.074 0.297,-0.068C0.29,-0.062 0.281,-0.056 0.27,-0.05C0.259,-0.044 0.245,-0.039 0.229,-0.034C0.212,-0.029 0.193,-0.027 0.171,-0.027C0.156,-0.027 0.141,-0.031 0.126,-0.038C0.111,-0.045 0.098,-0.055 0.087,-0.069C0.076,-0.082 0.066,-0.099 0.059,-0.12C0.052,-0.14 0.048,-0.164 0.048,-0.191C0.048,-0.217 0.051,-0.241 0.058,-0.264C0.065,-0.287 0.073,-0.307 0.084,-0.324C0.094,-0.341 0.105,-0.355 0.118,-0.365C0.131,-0.375 0.143,-0.38 0.155,-0.38C0.166,-0.38 0.177,-0.378 0.188,-0.374C0.199,-0.369 0.209,-0.364 0.218,-0.357C0.227,-0.35 0.234,-0.343 0.239,-0.335C0.244,-0.326 0.247,-0.318 0.247,-0.309C0.247,-0.299 0.243,-0.289 0.234,-0.278C0.225,-0.267 0.214,-0.258 0.201,-0.249C0.188,-0.24 0.176,-0.232 0.163,-0.227C0.15,-0.221 0.14,-0.218 0.133,-0.218C0.129,-0.218 0.126,-0.22 0.123,-0.224C0.12,-0.227 0.118,-0.232 0.118,-0.237C0.118,-0.246 0.122,-0.254 0.131,-0.259C0.139,-0.264 0.148,-0.269 0.158,-0.274C0.168,-0.278 0.177,-0.283 0.186,-0.289C0.194,-0.295 0.198,-0.303 0.198,-0.314C0.198,-0.315 0.196,-0.319 0.193,-0.324C0.19,-0.329 0.181,-0.332 0.166,-0.332C0.159,-0.332 0.152,-0.328 0.143,-0.321C0.134,-0.313 0.126,-0.303 0.118,-0.29C0.11,-0.277 0.103,-0.261 0.098,-0.244C0.093,-0.226 0.09,-0.207 0.09,-0.186C0.09,-0.169 0.093,-0.153 0.1,-0.139C0.106,-0.125 0.114,-0.113 0.124,-0.104C0.134,-0.094 0.146,-0.086 0.159,-0.081C0.172,-0.076 0.186,-0.073 0.2,-0.073C0.21,-0.073 0.221,-0.075 0.233,-0.08C0.244,-0.084 0.255,-0.089 0.266,-0.094C0.276,-0.098 0.285,-0.103 0.293,-0.108C0.3,-0.112 0.305,-0.114 0.307,-0.114C0.309,-0.114 0.311,-0.113 0.314,-0.111C0.316,-0.109 0.317,-0.107 0.318,-0.105Z" style="fill:rgb(53,51,57);fill-rule:nonzero;"/>
            </g>
            <g transform="matrix(144,0,0,144,392.256,0)">
                <path d="M0.439,-0.234C0.439,-0.221 0.438,-0.208 0.437,-0.196C0.435,-0.184 0.431,-0.172 0.426,-0.16C0.42,-0.147 0.412,-0.134 0.402,-0.12C0.392,-0.106 0.379,-0.09 0.363,-0.072C0.344,-0.051 0.321,-0.032 0.295,-0.015C0.269,0.002 0.24,0.01 0.208,0.01C0.188,0.01 0.168,0.007 0.149,-0C0.129,-0.007 0.112,-0.017 0.097,-0.03C0.082,-0.043 0.069,-0.06 0.06,-0.08C0.051,-0.1 0.046,-0.123 0.046,-0.15C0.046,-0.193 0.054,-0.238 0.07,-0.285C0.086,-0.331 0.108,-0.382 0.137,-0.436C0.156,-0.471 0.173,-0.502 0.189,-0.53C0.205,-0.557 0.221,-0.579 0.236,-0.598C0.251,-0.616 0.267,-0.63 0.282,-0.639C0.297,-0.648 0.314,-0.653 0.331,-0.653C0.344,-0.653 0.356,-0.651 0.366,-0.646C0.375,-0.641 0.38,-0.631 0.38,-0.616C0.38,-0.611 0.379,-0.607 0.377,-0.604C0.375,-0.6 0.372,-0.598 0.368,-0.598C0.363,-0.598 0.359,-0.6 0.357,-0.603C0.354,-0.606 0.348,-0.607 0.337,-0.607C0.319,-0.607 0.301,-0.599 0.284,-0.582C0.267,-0.565 0.251,-0.546 0.236,-0.525C0.221,-0.503 0.208,-0.481 0.197,-0.46C0.186,-0.439 0.178,-0.423 0.173,-0.413C0.165,-0.396 0.156,-0.377 0.147,-0.354C0.137,-0.331 0.128,-0.308 0.119,-0.284C0.11,-0.26 0.103,-0.237 0.097,-0.215C0.091,-0.192 0.088,-0.174 0.088,-0.159C0.088,-0.14 0.091,-0.124 0.098,-0.11C0.104,-0.095 0.112,-0.083 0.123,-0.073C0.134,-0.063 0.146,-0.056 0.161,-0.051C0.175,-0.046 0.19,-0.043 0.206,-0.043C0.228,-0.043 0.251,-0.048 0.274,-0.059C0.297,-0.07 0.317,-0.084 0.336,-0.101C0.354,-0.118 0.369,-0.138 0.381,-0.161C0.392,-0.184 0.398,-0.207 0.398,-0.23C0.398,-0.253 0.392,-0.273 0.38,-0.288C0.368,-0.303 0.355,-0.311 0.34,-0.311C0.331,-0.311 0.324,-0.31 0.321,-0.307C0.317,-0.304 0.313,-0.3 0.31,-0.295C0.305,-0.288 0.301,-0.282 0.297,-0.277C0.293,-0.272 0.286,-0.268 0.276,-0.265C0.26,-0.26 0.248,-0.256 0.239,-0.254C0.23,-0.251 0.223,-0.249 0.219,-0.248L0.211,-0.246C0.207,-0.246 0.202,-0.249 0.195,-0.255C0.188,-0.26 0.184,-0.265 0.184,-0.268C0.184,-0.28 0.191,-0.292 0.206,-0.303C0.22,-0.314 0.236,-0.324 0.254,-0.333C0.272,-0.342 0.289,-0.349 0.306,-0.354C0.323,-0.359 0.333,-0.362 0.337,-0.362C0.357,-0.362 0.374,-0.358 0.387,-0.35C0.4,-0.342 0.41,-0.332 0.418,-0.319C0.425,-0.306 0.431,-0.293 0.434,-0.278C0.437,-0.263 0.439,-0.248 0.439,-0.234Z" style="fill:rgb(53,51,57);fill-rule:nonzero;"/>
            </g>
            <g transform="matrix(144,0,0,144,459.936,0)">
                <path d="M0.276,-0.305C0.276,-0.3 0.274,-0.297 0.27,-0.294C0.266,-0.291 0.261,-0.288 0.256,-0.286C0.251,-0.284 0.245,-0.283 0.24,-0.282C0.235,-0.281 0.23,-0.28 0.227,-0.28C0.217,-0.28 0.21,-0.281 0.207,-0.282C0.204,-0.283 0.201,-0.284 0.199,-0.284C0.182,-0.284 0.169,-0.283 0.159,-0.28C0.149,-0.277 0.141,-0.273 0.136,-0.267C0.13,-0.261 0.126,-0.254 0.125,-0.245C0.123,-0.236 0.122,-0.225 0.122,-0.212C0.122,-0.191 0.123,-0.174 0.125,-0.161C0.126,-0.148 0.128,-0.138 0.13,-0.13C0.131,-0.122 0.133,-0.116 0.135,-0.112C0.136,-0.107 0.137,-0.103 0.137,-0.099C0.137,-0.094 0.134,-0.088 0.129,-0.082C0.123,-0.076 0.118,-0.073 0.113,-0.073C0.105,-0.073 0.098,-0.08 0.092,-0.095C0.085,-0.109 0.08,-0.126 0.076,-0.146C0.071,-0.165 0.068,-0.185 0.065,-0.204C0.062,-0.223 0.061,-0.238 0.061,-0.248C0.061,-0.259 0.062,-0.27 0.064,-0.281C0.066,-0.291 0.069,-0.3 0.072,-0.308C0.075,-0.315 0.079,-0.321 0.083,-0.326C0.087,-0.331 0.091,-0.333 0.095,-0.333C0.098,-0.333 0.101,-0.332 0.103,-0.33C0.105,-0.327 0.107,-0.325 0.108,-0.322C0.109,-0.319 0.111,-0.316 0.113,-0.314C0.114,-0.311 0.116,-0.31 0.119,-0.31C0.125,-0.31 0.135,-0.313 0.148,-0.319C0.161,-0.325 0.178,-0.328 0.197,-0.328C0.215,-0.328 0.229,-0.328 0.238,-0.327C0.247,-0.326 0.255,-0.323 0.264,-0.32C0.266,-0.319 0.269,-0.318 0.272,-0.316C0.275,-0.313 0.276,-0.31 0.276,-0.305Z" style="fill:rgb(53,51,57);fill-rule:nonzero;"/>
            </g>
            <g transform="matrix(144,0,0,144,505.44,0)">
                <path d="M0.099,-0.46C0.099,-0.459 0.097,-0.456 0.092,-0.452C0.087,-0.448 0.082,-0.444 0.076,-0.44C0.069,-0.435 0.063,-0.431 0.056,-0.428C0.049,-0.425 0.044,-0.423 0.04,-0.423C0.037,-0.423 0.034,-0.423 0.03,-0.424C0.025,-0.424 0.021,-0.425 0.017,-0.427C0.012,-0.429 0.008,-0.432 0.005,-0.436C0.002,-0.439 0,-0.444 0,-0.45C0,-0.459 0.003,-0.468 0.01,-0.477C0.017,-0.485 0.025,-0.489 0.036,-0.489C0.038,-0.489 0.043,-0.488 0.05,-0.487C0.056,-0.485 0.064,-0.483 0.071,-0.48C0.078,-0.477 0.085,-0.474 0.091,-0.471C0.096,-0.468 0.099,-0.464 0.099,-0.46ZM0.132,-0.086C0.132,-0.081 0.129,-0.077 0.122,-0.074C0.115,-0.071 0.109,-0.069 0.106,-0.069C0.099,-0.069 0.093,-0.073 0.088,-0.082C0.083,-0.091 0.078,-0.101 0.074,-0.112C0.07,-0.123 0.067,-0.134 0.064,-0.145C0.061,-0.155 0.059,-0.162 0.058,-0.166C0.056,-0.173 0.053,-0.181 0.05,-0.19C0.047,-0.199 0.044,-0.208 0.041,-0.217C0.038,-0.226 0.035,-0.233 0.033,-0.24C0.031,-0.247 0.03,-0.25 0.03,-0.251C0.03,-0.26 0.032,-0.269 0.036,-0.277C0.039,-0.285 0.044,-0.289 0.049,-0.289C0.055,-0.289 0.061,-0.284 0.068,-0.275C0.075,-0.266 0.081,-0.254 0.088,-0.24C0.094,-0.225 0.1,-0.21 0.105,-0.193C0.11,-0.175 0.115,-0.16 0.119,-0.145C0.123,-0.129 0.126,-0.116 0.129,-0.106C0.131,-0.094 0.132,-0.088 0.132,-0.086Z" style="fill:rgb(53,51,57);fill-rule:nonzero;"/>
            </g>
            <g transform="matrix(144,0,0,144,527.76,0)">
                <path d="M0.323,-0.161C0.323,-0.158 0.322,-0.155 0.319,-0.152C0.316,-0.149 0.314,-0.145 0.313,-0.142C0.313,-0.135 0.315,-0.128 0.318,-0.121C0.321,-0.114 0.322,-0.106 0.322,-0.097C0.322,-0.088 0.319,-0.084 0.314,-0.084C0.307,-0.084 0.303,-0.083 0.3,-0.082C0.297,-0.08 0.291,-0.078 0.284,-0.077C0.28,-0.077 0.276,-0.081 0.271,-0.088C0.268,-0.091 0.266,-0.095 0.264,-0.1C0.264,-0.101 0.262,-0.099 0.259,-0.096C0.255,-0.093 0.249,-0.089 0.241,-0.085C0.232,-0.08 0.221,-0.076 0.207,-0.073C0.192,-0.069 0.174,-0.067 0.152,-0.067C0.133,-0.067 0.117,-0.071 0.103,-0.08C0.089,-0.088 0.078,-0.099 0.069,-0.112C0.059,-0.125 0.053,-0.14 0.049,-0.158C0.044,-0.174 0.042,-0.192 0.042,-0.209C0.042,-0.225 0.044,-0.24 0.048,-0.255C0.051,-0.269 0.056,-0.282 0.063,-0.293C0.07,-0.304 0.078,-0.312 0.088,-0.319C0.098,-0.326 0.11,-0.329 0.123,-0.329C0.136,-0.329 0.148,-0.325 0.161,-0.317C0.174,-0.309 0.185,-0.3 0.195,-0.291C0.205,-0.282 0.213,-0.273 0.22,-0.266C0.226,-0.258 0.229,-0.254 0.229,-0.254C0.22,-0.306 0.211,-0.353 0.204,-0.395C0.201,-0.413 0.198,-0.431 0.195,-0.449C0.192,-0.466 0.189,-0.482 0.186,-0.496C0.183,-0.51 0.181,-0.522 0.18,-0.532C0.178,-0.541 0.177,-0.547 0.177,-0.549C0.176,-0.553 0.176,-0.56 0.175,-0.571C0.174,-0.581 0.174,-0.592 0.173,-0.603C0.172,-0.614 0.172,-0.625 0.171,-0.634C0.17,-0.643 0.17,-0.649 0.169,-0.652C0.167,-0.659 0.165,-0.667 0.162,-0.677C0.159,-0.687 0.157,-0.693 0.157,-0.694C0.157,-0.697 0.159,-0.702 0.162,-0.707C0.165,-0.712 0.17,-0.714 0.175,-0.714C0.179,-0.714 0.183,-0.714 0.186,-0.713C0.189,-0.712 0.192,-0.71 0.195,-0.707C0.198,-0.704 0.2,-0.699 0.203,-0.692C0.205,-0.685 0.207,-0.675 0.209,-0.662C0.21,-0.655 0.212,-0.643 0.215,-0.624C0.218,-0.605 0.222,-0.585 0.225,-0.563C0.228,-0.541 0.232,-0.52 0.235,-0.5C0.238,-0.48 0.241,-0.465 0.242,-0.456C0.245,-0.431 0.25,-0.403 0.256,-0.374C0.261,-0.344 0.267,-0.315 0.273,-0.288C0.279,-0.261 0.285,-0.237 0.291,-0.216C0.297,-0.195 0.302,-0.18 0.307,-0.173C0.308,-0.17 0.311,-0.169 0.315,-0.168C0.319,-0.167 0.322,-0.164 0.323,-0.161ZM0.249,-0.141C0.248,-0.143 0.244,-0.152 0.237,-0.167C0.229,-0.182 0.219,-0.198 0.208,-0.216C0.196,-0.233 0.183,-0.249 0.169,-0.263C0.154,-0.277 0.14,-0.284 0.127,-0.284C0.116,-0.284 0.107,-0.275 0.1,-0.258C0.092,-0.241 0.089,-0.221 0.089,-0.198C0.089,-0.173 0.096,-0.152 0.112,-0.137C0.127,-0.122 0.143,-0.114 0.162,-0.114C0.178,-0.114 0.195,-0.117 0.212,-0.122C0.229,-0.127 0.242,-0.134 0.249,-0.141Z" style="fill:rgb(53,51,57);fill-rule:nonzero;"/>
            </g>
            <g transform="matrix(144,0,0,144,579.6,0)">
                <path d="M0.237,-0.23C0.237,-0.196 0.231,-0.165 0.219,-0.138C0.206,-0.111 0.191,-0.088 0.174,-0.069C0.156,-0.05 0.137,-0.035 0.117,-0.025C0.097,-0.015 0.079,-0.01 0.064,-0.01C0.059,-0.01 0.054,-0.011 0.049,-0.012C0.044,-0.013 0.042,-0.017 0.042,-0.024C0.042,-0.026 0.043,-0.029 0.044,-0.033C0.045,-0.036 0.046,-0.039 0.048,-0.042C0.05,-0.041 0.053,-0.04 0.058,-0.04C0.067,-0.04 0.079,-0.045 0.094,-0.055C0.109,-0.064 0.123,-0.078 0.137,-0.097C0.15,-0.115 0.162,-0.138 0.172,-0.165C0.182,-0.192 0.187,-0.224 0.187,-0.259C0.187,-0.272 0.185,-0.287 0.182,-0.303C0.179,-0.318 0.175,-0.333 0.17,-0.348C0.165,-0.363 0.161,-0.376 0.156,-0.387C0.151,-0.398 0.146,-0.406 0.142,-0.411C0.14,-0.413 0.139,-0.415 0.139,-0.418C0.139,-0.421 0.141,-0.426 0.146,-0.431C0.151,-0.436 0.156,-0.438 0.161,-0.438C0.166,-0.438 0.172,-0.434 0.181,-0.426C0.19,-0.417 0.198,-0.405 0.207,-0.388C0.215,-0.371 0.222,-0.349 0.228,-0.323C0.234,-0.297 0.237,-0.266 0.237,-0.23Z" style="fill:rgb(53,51,57);fill-rule:nonzero;"/>
            </g>
        </g>
    </g>
    <path d="M548.374,439.879L728.281,439.879" style="fill:none;stroke:rgb(212,146,173);stroke-width:13px;stroke-miterlimit:1;"/>
    <g transform="matrix(1,0,0,1,0,12.6981)">
        <path d="M548.374,481.3L728.281,481.3" style="fill:none;stroke:rgb(212,146,173);stroke-width:13px;stroke-miterlimit:1;"/>
    </g>
    <g transform="matrix(1,0,0,1,0,8.15622)">
        <path d="M548.374,539.961L728.281,541.311" style="fill:none;stroke:rgb(212,146,173);stroke-width:13px;stroke-miterlimit:1;"/>
    </g>
    <path d="M548.374,603.586L726.609,603.586" style="fill:none;stroke:rgb(212,146,173);stroke-width:13px;stroke-miterlimit:1;"/>
    <path d="M582.258,398.458L582.258,625.082" style="fill:none;stroke:rgb(212,146,173);stroke-width:13px;stroke-miterlimit:1;"/>
    <g transform="matrix(1,0,0,1,4.33555,0)">
        <path d="M616.142,398.458L618.612,625.082" style="fill:none;stroke:rgb(212,146,173);stroke-width:13px;stroke-miterlimit:1;"/>
    </g>
    <g transform="matrix(1,0,0,1,-0.348205,0)">
        <path d="M664.15,398.458L661.515,625.082" style="fill:none;stroke:rgb(212,146,173);stroke-width:13px;stroke-miterlimit:1;"/>
    </g>
    <path d="M702.869,398.458L702.022,625.082" style="fill:none;stroke:rgb(212,146,173);stroke-width:13px;stroke-miterlimit:1;"/>
</svg>
